<svg width="115" height="86" viewBox="0 0 115 86" fill="none" xmlns="http://www.w3.org/2000/svg">
<path d="M14.8047 26.2019C17.6257 24.5319 20.4467 22.8619 23.2724 21.1873C19.1775 18.1233 15.0826 15.064 10.9877 12C7.34679 12.8981 3.7105 13.7963 0.0695801 14.6944C4.97973 18.5303 9.89451 22.3661 14.8047 26.2019Z" fill="url(#paint0_linear_14_9018)"/>
<path d="M14.1931 25.94C9.46362 22.2211 4.73413 18.5022 0 14.7833L0.134334 14.6102L14.7721 26.1177C14.5776 26.0569 14.383 25.9961 14.1885 25.94H14.1931Z" fill="#754D2F"/>
<path d="M100.195 26.2019C97.3742 24.5319 94.5532 22.8619 91.7275 21.1873C95.8224 18.1233 99.9173 15.064 104.012 12C107.653 12.8981 111.289 13.7963 114.93 14.6944C110.02 18.5303 105.105 22.3661 100.195 26.2019Z" fill="url(#paint1_linear_14_9018)"/>
<path d="M114.867 14.6028L100.132 26.116L100.265 26.2899L115 14.7766L114.867 14.6028Z" fill="#754D2F"/>
<path d="M100.431 26.2019H14.6936L23.2678 21.192H91.732L100.431 26.2019Z" fill="url(#paint2_linear_14_9018)"/>
<path style="mix-blend-mode:screen" opacity="0.2" d="M100.431 26.2019H14.6936C15.6571 25.6406 16.6206 25.0746 17.5841 24.5132C44.2796 24.546 70.9704 24.574 97.6659 24.6068C98.5877 25.14 99.5142 25.6686 100.436 26.2019H100.431Z" fill="url(#paint3_linear_14_9018)"/>
<path d="M91.8247 21.192H23.2678V26.2066H91.8247V21.192Z" fill="url(#paint4_linear_14_9018)"/>
<path d="M100.431 73.6445V74C43.2744 73.8222 14.6936 73.7053 14.6936 73.6445C14.6936 73.5837 43.2698 73.5837 100.431 73.6445Z" fill="#754D2F"/>
<path d="M100.431 26.2019H14.6936V73.6445H100.431V26.2019Z" fill="url(#paint5_linear_14_9018)"/>
<path style="mix-blend-mode:screen" opacity="0.5" d="M17.5466 26.2019H14.707V73.6445H17.5466V26.2019Z" fill="url(#paint6_linear_14_9018)"/>
<path style="mix-blend-mode:multiply" opacity="0.1" d="M97.5916 73.6445H100.431V26.2019H97.5916V73.6445Z" fill="url(#paint7_linear_14_9018)"/>
<path style="mix-blend-mode:multiply" opacity="0.15" d="M100.431 60.1864H14.707V73.6445H100.431V60.1864Z" fill="url(#paint8_linear_14_9018)"/>
<path d="M89.9625 13.0619H25.1346L23.2678 21.1919H91.8293L89.9625 13.0619Z" fill="url(#paint9_linear_14_9018)"/>
<mask id="mask0_14_9018" style="mask-type:luminance" maskUnits="userSpaceOnUse" x="14" y="25" width="87" height="48">
<path d="M100.398 72.3862C71.8362 72.2271 43.2739 72.0634 14.707 71.9044V25.7669H100.431C100.417 41.3066 100.408 56.8417 100.394 72.3815L100.398 72.3862Z" fill="white"/>
</mask>
<g mask="url(#mask0_14_9018)">
<g style="mix-blend-mode:multiply" opacity="0.7">
<path opacity="0.02" d="M105.554 27.9374C117.945 37.1481 125.213 57.2534 118.765 65.1917C103.243 84.2959 4.60891 35.5248 7.54111 25.0792C8.17572 22.8105 13.4889 24.1343 50.6532 23.5543C88.6142 22.9602 96.7113 21.365 105.559 27.9374H105.554Z" fill="#FCFCFB"/>
<path opacity="0.03" d="M105.438 27.8859C117.621 36.9469 124.449 56.7108 117.894 64.5321C102.177 83.2902 4.78492 35.3564 7.66616 25.0792C8.29151 22.8386 13.9428 24.1343 50.8523 23.5636C88.4428 22.9789 96.7391 21.4165 105.434 27.8859H105.438Z" fill="#FAF8F7"/>
<path opacity="0.05" d="M105.327 27.8345C117.306 36.7505 123.689 56.1681 117.033 63.8725C101.121 82.2798 4.97485 35.1881 7.80513 25.0793C8.42122 22.8713 14.4107 24.139 51.0654 23.5777C88.2853 23.0023 96.7808 21.468 105.327 27.8345Z" fill="#F7F5F3"/>
<path opacity="0.07" d="M105.216 27.7877C116.986 36.554 122.929 55.6302 116.166 63.2177C100.065 81.2788 5.15521 35.0243 7.93917 25.0793C8.54136 22.9041 14.8736 24.139 51.2736 23.5917C88.1229 23.0304 96.8129 21.5241 105.216 27.7877Z" fill="#F5F2F0"/>
<path opacity="0.08" d="M105.105 27.7363C116.671 36.3528 122.17 55.0876 115.3 62.5581C99.0135 80.273 5.3361 34.8559 8.06911 25.0793C8.66203 22.9321 15.3324 24.1437 51.4823 23.6058C87.9563 23.0538 96.8502 21.5802 105.105 27.741V27.7363Z" fill="#F2EFEC"/>
<path opacity="0.1" d="M104.989 27.6895C116.347 36.1611 121.41 54.5496 114.434 61.9032C97.9617 79.272 5.51646 34.6922 8.20315 25.0839C8.78681 22.9696 15.7954 24.1484 51.6904 23.6198C87.7939 23.0772 96.887 21.6364 104.993 27.6895H104.989Z" fill="#EFEBE8"/>
<path opacity="0.11" d="M104.878 27.638C116.032 35.9599 120.65 54.007 113.568 61.2436C96.9104 78.2662 5.7205 34.5285 8.3377 25.0792C8.9121 22.9976 16.2588 24.1484 51.8991 23.6291C87.632 23.0958 96.9196 21.6878 104.878 27.638Z" fill="#EDE8E4"/>
<path opacity="0.13" d="M104.767 27.5866C115.713 35.7587 119.895 53.4597 112.702 60.584C95.8635 77.2605 5.90584 34.3601 8.46746 25.0792C9.03259 23.0304 16.7174 24.1484 52.103 23.6432C87.4653 23.1192 96.9521 21.744 104.762 27.5912L104.767 27.5866Z" fill="#EAE5E0"/>
<path opacity="0.15" d="M104.656 27.5398C115.393 35.567 119.14 52.9217 111.84 59.9291C94.8213 76.2594 6.09579 34.1964 8.60645 25.0793C9.16231 23.0584 17.1853 24.1531 52.3161 23.6525C87.3078 23.1426 96.9892 21.7954 104.656 27.5351V27.5398Z" fill="#E8E2DC"/>
<path opacity="0.16" d="M104.539 27.4883C115.073 35.3658 118.38 52.3791 110.969 59.2695C93.7741 75.2537 6.27152 34.0279 8.73586 25.0793C9.28246 23.0912 17.6436 24.153 52.5196 23.6665C87.1408 23.166 97.0213 21.8515 104.539 27.4883Z" fill="#E5DED8"/>
<path opacity="0.18" d="M104.429 27.4369C114.754 35.1647 117.626 51.8365 110.108 58.61C92.7368 74.248 6.46176 33.8595 8.87052 25.0793C9.40785 23.1239 18.1072 24.1577 52.733 23.6806C86.979 23.1894 97.0633 21.903 104.433 27.4416L104.429 27.4369Z" fill="#E2DBD4"/>
<path opacity="0.2" d="M104.317 27.3901C114.439 34.9729 116.875 51.2985 109.241 57.9551C91.6992 73.2516 6.64707 33.6958 9.00487 25.0792C9.53295 23.152 18.5704 24.1577 52.9415 23.6899C86.8169 23.2081 97.0958 21.9545 104.317 27.3854V27.3901Z" fill="#E0D8D1"/>
<path opacity="0.21" d="M104.206 27.3386C114.119 34.7717 116.12 50.7559 108.375 57.2955C90.6617 72.2458 6.83239 33.5274 9.13924 25.0792C9.65805 23.1847 19.0337 24.1624 53.1499 23.704C86.6548 23.2362 97.1329 22.0106 104.206 27.3386Z" fill="#DDD5CD"/>
<path opacity="0.23" d="M104.09 27.2872C113.795 34.5706 115.365 50.2133 107.509 56.6359C89.6236 71.2448 7.01728 33.359 9.26854 25.0793C9.77345 23.2175 19.4918 24.1624 53.3534 23.718C86.4876 23.2596 97.1649 22.0667 104.09 27.2919V27.2872Z" fill="#DBD1C9"/>
<path opacity="0.25" d="M103.979 27.2404C113.48 34.3788 114.615 49.68 106.643 55.981C88.5909 70.2484 7.19816 33.1953 9.40309 25.0792C9.89874 23.2455 19.9553 24.1671 53.562 23.732C86.3257 23.283 97.1975 22.1228 103.979 27.2404Z" fill="#D8CEC5"/>
<path opacity="0.26" d="M103.868 27.189C113.16 34.1776 113.864 49.1373 105.776 55.3214C87.5577 69.2473 7.3833 33.0269 9.53265 25.0792C10.019 23.2783 20.4137 24.1671 53.7657 23.7414C86.1542 23.3017 97.2298 22.1743 103.863 27.189H103.868Z" fill="#D5CBC1"/>
<path opacity="0.28" d="M103.752 27.1422C112.84 33.9812 113.114 48.5994 104.91 54.6666C86.5294 68.2557 7.56864 32.8632 9.66703 25.0793C10.1441 23.311 20.877 24.1718 53.9788 23.7554C85.9967 23.3251 97.2669 22.2305 103.757 27.1422H103.752Z" fill="#D3C8BD"/>
<path opacity="0.3" d="M103.641 27.0907C112.521 33.7847 112.363 48.0615 104.044 54.007C85.5011 67.2593 7.75398 32.6948 9.80142 25.0793C10.2693 23.3391 21.3403 24.1718 54.1873 23.7695C85.8347 23.3531 97.304 22.2866 103.641 27.0907Z" fill="#D0C4B9"/>
<path opacity="0.31" d="M103.53 27.0392C112.206 33.5835 111.618 47.5188 103.178 53.3474C84.4729 66.2629 7.93939 32.5263 9.93124 25.0792C10.3898 23.3718 21.799 24.1764 54.3913 23.7788C85.668 23.3718 97.3366 22.3333 103.525 27.0392H103.53Z" fill="#CDC1B5"/>
<path opacity="0.33" d="M103.418 26.9925C111.886 33.3918 110.872 46.9855 102.316 52.6925C83.4536 65.2712 8.12444 32.3626 10.07 25.0792C10.5193 23.4046 22.2666 24.1764 54.6041 23.7928C85.5103 23.3952 97.3734 22.3895 103.418 26.9925Z" fill="#CBBEB2"/>
<path opacity="0.34" d="M103.303 26.941C111.562 33.1906 110.121 46.4476 101.445 52.0329C82.4253 64.2795 8.30516 32.1942 10.1997 25.0793C10.6352 23.4373 22.7299 24.1764 54.808 23.8069C85.3436 23.4186 97.4059 22.4456 103.303 26.941Z" fill="#C8BAAE"/>
<path opacity="0.36" d="M103.191 26.8896C111.233 33.0082 109.375 45.9096 100.583 51.3734C81.4107 63.2878 8.49499 32.0258 10.334 25.0793C10.7601 23.4654 23.193 24.1811 55.021 23.8162C85.1814 23.442 97.4382 22.5111 103.196 26.8896H103.191Z" fill="#C6B7AA"/>
<path opacity="0.38" d="M103.08 26.8428C110.913 32.8117 108.63 45.3764 99.7173 50.7185C80.3917 62.3055 8.68036 31.8621 10.4684 25.0793C10.8853 23.4982 23.6563 24.1811 55.2295 23.8303C85.0193 23.4654 97.4707 22.5673 103.08 26.8428Z" fill="#C3B4A6"/>
<path opacity="0.39" d="M102.969 26.7913C110.599 32.6152 107.884 44.8384 98.8514 50.0589C79.3729 61.3138 8.86128 31.6937 10.603 25.0793C11.0106 23.5309 24.1198 24.1858 55.4382 23.8443C84.8575 23.4888 97.5081 22.6234 102.969 26.7913Z" fill="#C0B1A2"/>
<path opacity="0.41" d="M102.854 26.7399C110.274 32.4141 107.138 44.3005 97.9851 49.3993C78.3538 60.3267 9.0465 31.5253 10.7326 25.0746C11.131 23.5543 24.5783 24.1811 55.642 23.8537C84.6906 23.5075 97.5358 22.6749 102.854 26.7399Z" fill="#BEAD9E"/>
<path opacity="0.43" d="M102.742 26.6931C109.955 32.2223 106.392 43.7719 97.1187 48.7444C77.3345 59.3491 9.23167 31.3616 10.8668 25.0792C11.2559 23.5917 25.0414 24.1905 55.8503 23.8677C84.5284 23.5309 97.5727 22.731 102.742 26.6931Z" fill="#BBAA9A"/>
<path opacity="0.44" d="M102.631 26.6416C109.635 32.0258 105.651 43.2386 96.2526 48.0848C76.3201 58.3667 9.41236 31.1932 11.0012 25.0793C11.3811 23.6244 25.5047 24.1905 56.0588 23.8817C84.3617 23.559 97.6052 22.7871 102.631 26.6416Z" fill="#B9A797"/>
<path opacity="0.46" d="M102.52 26.5949C109.32 31.8294 104.91 42.71 95.3907 47.4299C75.31 57.3891 9.60201 31.0295 11.1353 25.0793C11.5012 23.6525 25.9676 24.1951 56.2716 23.8958C84.2039 23.5824 97.6466 22.8433 102.52 26.5949Z" fill="#B6A493"/>
<path opacity="0.48" d="M102.404 26.5434C108.996 31.6329 104.164 42.1767 94.52 46.7704C74.2911 56.4114 9.78281 30.861 11.2651 25.0792C11.6218 23.6852 26.4264 24.1951 56.4756 23.9051C84.0373 23.601 97.6745 22.8947 102.404 26.5434Z" fill="#B3A08F"/>
<path opacity="0.49" d="M102.293 26.492C108.676 31.4317 103.423 41.6435 93.6541 46.1108C73.2816 55.429 9.96378 30.6926 11.3998 25.0792C11.7472 23.718 26.8899 24.1998 56.6843 23.9191C83.8755 23.6244 97.7119 22.9508 102.293 26.492Z" fill="#B19D8B"/>
<path opacity="0.51" d="M102.182 26.4452C108.361 31.24 102.682 41.1149 92.7925 45.4559C72.2718 54.4607 10.1537 30.5289 11.5341 25.0793C11.8723 23.7461 27.3531 24.1998 56.8928 23.9332C83.7134 23.6525 97.7443 23.007 102.182 26.4452Z" fill="#AE9A87"/>
<path opacity="0.52" d="M102.071 26.3937C108.042 31.0388 101.941 40.5863 91.9261 44.7963C71.2618 53.4831 10.3342 30.3605 11.6683 25.0792C11.9972 23.7788 27.8162 24.2045 57.1011 23.9425C83.5511 23.6712 97.7812 23.0584 102.071 26.3937Z" fill="#AC9783"/>
<path opacity="0.54" d="M101.955 26.3423C107.718 30.8423 101.195 40.0577 91.0555 44.1367C70.2475 52.5147 10.5151 30.1921 11.7982 25.0746C12.1178 23.8069 28.275 24.1998 57.3051 23.9519C83.3799 23.6899 97.8092 23.1099 101.95 26.3376L101.955 26.3423Z" fill="#A9937F"/>
<path opacity="0.56" d="M101.844 26.2955C107.403 30.6459 100.454 39.5338 90.1939 43.4818C69.2378 51.5464 10.7051 30.0284 11.9326 25.0792C12.2383 23.8396 28.7383 24.2092 57.5183 23.9706C83.2224 23.718 97.851 23.1707 101.844 26.2955Z" fill="#A6907B"/>
<path opacity="0.57" d="M101.733 26.244C107.083 30.4494 99.713 39.0052 89.3276 42.8223C68.2278 50.5781 10.8856 29.86 12.0668 25.0792C12.3633 23.8724 29.2014 24.2092 57.7266 23.98C83.0602 23.7367 97.8879 23.2175 101.733 26.244Z" fill="#A48D78"/>
<path opacity="0.59" d="M101.617 26.1926C106.758 30.2483 98.9716 38.4766 88.4611 42.1627C67.2178 49.6098 11.0706 29.6916 12.2009 25.0746C12.4881 23.9004 29.6644 24.2092 57.9348 23.9893C82.8978 23.7601 97.9201 23.2689 101.621 26.1879L101.617 26.1926Z" fill="#A18A74"/>
<path opacity="0.61" d="M101.506 26.1458C106.439 30.0565 98.2307 37.9573 87.5951 41.5078C66.2082 48.6509 11.2516 29.5232 12.3309 25.0793C12.6088 23.9332 30.1232 24.2139 58.1389 24.008C82.7313 23.7882 97.9528 23.3297 101.506 26.1458Z" fill="#9F8670"/>
<path opacity="0.62" d="M101.394 26.0944C106.124 29.8553 97.4894 37.4334 86.7287 40.8482C65.1982 47.6826 11.4366 29.3548 12.465 25.0793C12.7337 23.9659 30.5862 24.2185 58.3471 24.0221C82.5643 23.8116 97.985 23.3859 101.394 26.099V26.0944Z" fill="#9C836C"/>
<path opacity="0.64" d="M101.283 26.0475C105.804 29.6635 96.7528 36.9142 85.8671 40.1933C64.1929 46.7282 11.6219 29.191 12.6039 25.0792C12.8633 23.9987 31.054 24.2185 58.5648 24.0314C82.4114 23.8303 98.0313 23.4373 101.288 26.0429L101.283 26.0475Z" fill="#998068"/>
<path opacity="0.66" d="M101.168 25.9961C105.48 29.4624 96.0073 36.3903 84.9965 39.5338C63.1788 45.7646 11.7982 29.0227 12.7293 25.0793C12.9748 24.0268 31.5083 24.2232 58.7643 24.0455C82.2404 23.8584 98.0548 23.4935 101.168 25.9961Z" fill="#977D64"/>
<path opacity="0.67" d="M101.056 25.9447C105.165 29.2612 95.266 35.8663 84.1302 38.8742C62.1688 44.8057 11.9834 28.8543 12.8635 25.0746C13.0997 24.0548 31.9714 24.2185 58.9726 24.0548C82.0781 23.877 98.0917 23.5449 101.056 25.9447Z" fill="#947960"/>
<path opacity="0.69" d="M100.945 25.8979C104.845 29.0694 94.5247 35.3518 83.2685 38.2193C61.1635 43.8514 12.1685 28.6905 12.9977 25.0792C13.2247 24.0922 32.4345 24.2279 59.1809 24.0688C81.9158 23.9004 98.124 23.6011 100.945 25.8932V25.8979Z" fill="#92765D"/>
<path opacity="0.7" d="M100.834 25.8464C104.526 28.8683 93.7882 34.8279 82.4023 37.5597C60.1537 42.8971 12.3492 28.5221 13.1321 25.0793C13.3498 24.1203 32.8977 24.2279 59.3894 24.0829C81.7537 23.9238 98.1611 23.6572 100.834 25.8464Z" fill="#8F7359"/>
<path opacity="0.72" d="M100.718 25.795C104.202 28.6718 93.0425 34.3086 81.5314 36.9001C59.1347 41.9429 12.5253 28.3537 13.2618 25.0746C13.4703 24.1484 33.3564 24.2279 59.5933 24.0922C81.5824 23.9425 98.1889 23.7087 100.713 25.795H100.718Z" fill="#8C6F55"/>
<path opacity="0.74" d="M100.607 25.7482C103.886 28.4754 92.3012 33.7941 80.6697 36.2452C58.1293 40.9932 12.7151 28.1853 13.396 25.0793C13.5952 24.1858 33.8195 24.2326 59.8062 24.1063C81.4248 23.9706 98.2304 23.7648 100.607 25.7435V25.7482Z" fill="#8A6C51"/>
<path opacity="0.75" d="M100.496 25.6967C103.567 28.2789 91.5602 33.2795 79.8036 35.5857C57.1196 40.0436 12.8958 28.0169 13.5304 25.0793C13.7157 24.2139 34.2828 24.2372 60.0147 24.1203C81.2627 23.994 98.263 23.8209 100.496 25.6967Z" fill="#87694D"/>
<path opacity="0.77" d="M100.384 25.6453C103.247 28.0777 90.8189 32.7603 78.9419 34.9261C56.1097 39.0894 13.081 27.8485 13.6693 25.0746C13.8453 24.2419 34.7505 24.2326 60.2277 24.1296C81.1051 24.0127 98.3046 23.8724 100.389 25.6453H100.384Z" fill="#846649"/>
<path opacity="0.79" d="M100.269 25.5985C102.928 27.8859 90.0732 32.2504 78.0711 34.2712C55.0907 38.1444 13.2571 27.6848 13.7944 25.0792C13.9612 24.2793 35.2045 24.2419 60.427 24.1484C80.9338 24.0408 98.3278 23.9332 100.269 25.5985Z" fill="#826245"/>
<path opacity="0.8" d="M100.157 25.547C102.608 27.6848 89.3318 31.7311 77.2047 33.6116C54.076 37.1995 13.4329 27.5117 13.9286 25.0746C14.0861 24.3027 35.6722 24.2372 60.6352 24.153C80.7668 24.0595 98.3646 23.98 100.153 25.5424L100.157 25.547Z" fill="#7F5F41"/>
<path opacity="0.82" d="M100.046 25.4956C102.288 27.4837 88.5909 31.2166 76.3433 32.952C53.0664 36.2499 13.6184 27.3433 14.0678 25.0746C14.216 24.3355 36.1403 24.2372 60.8485 24.1671C80.6096 24.0829 98.4019 24.0361 100.046 25.4956Z" fill="#7D5C3E"/>
<path opacity="0.84" d="M99.9352 25.4488C101.969 27.2919 87.8497 30.7067 75.477 32.2971C52.0519 35.3097 13.7991 27.1796 14.1974 25.0792C14.3318 24.3682 36.5988 24.2466 61.0569 24.1858C80.4474 24.1109 98.4389 24.0969 99.9352 25.4488Z" fill="#7A593A"/>
<path opacity="0.85" d="M99.8192 25.3973C101.649 27.0907 87.1038 30.1921 74.6061 31.6376C51.0327 34.3647 13.9703 27.0065 14.327 25.0746C14.4521 24.3963 37.0573 24.2419 61.2606 24.1905C80.2805 24.125 98.4666 24.1437 99.8192 25.3927V25.3973Z" fill="#775536"/>
<path opacity="0.87" d="M99.708 25.3506C101.329 26.8943 86.3625 29.6869 73.7444 30.9827C50.0181 33.4245 14.1555 26.8428 14.4659 25.0793C14.5817 24.4337 37.5251 24.2513 61.4736 24.2092C80.1229 24.1531 98.5082 24.1998 99.7126 25.3506H99.708Z" fill="#755232"/>
<path opacity="0.89" d="M99.5969 25.2991C101.01 26.6978 85.6169 29.1724 72.8783 30.3231C49.0039 32.4796 14.3317 26.6697 14.5957 25.0793C14.6976 24.4618 37.9838 24.2513 61.6776 24.2232C79.9563 24.1811 98.5362 24.256 99.5923 25.2991H99.5969Z" fill="#724F2E"/>
<path opacity="0.9" d="M99.4812 25.2477C100.69 26.4966 84.8712 28.6625 72.0075 29.6635C47.9802 31.5393 14.5031 26.5013 14.7255 25.0746C14.8181 24.4898 38.4424 24.2513 61.8815 24.2279C79.785 24.1951 98.5686 24.3027 99.4765 25.243L99.4812 25.2477Z" fill="#704C2A"/>
<path opacity="0.92" d="M99.3701 25.2009C100.371 26.3002 84.1255 28.1526 71.146 29.0086C46.9658 30.6038 14.6793 26.3329 14.8646 25.0792C14.9433 24.5226 38.9104 24.2559 62.0947 24.2466C79.6276 24.2232 98.6058 24.3635 99.3701 25.2009Z" fill="#6D4826"/>
<path opacity="0.93" d="M99.2588 25.1494C100.051 26.099 83.3842 27.6427 70.2796 28.3491C45.9466 29.6635 14.8551 26.1645 14.9941 25.0746C15.0636 24.5507 39.3688 24.256 62.303 24.256C79.4653 24.2419 98.6427 24.4103 99.2588 25.1448V25.1494Z" fill="#6A4522"/>
<path opacity="0.95" d="M99.1476 25.098C99.7359 25.8932 82.6384 27.1328 69.418 27.6895C44.9275 28.7233 15.0312 25.9914 15.1331 25.0746C15.1887 24.5787 39.8367 24.2559 62.516 24.2653C79.3078 24.2653 98.6798 24.4571 99.1522 25.0933L99.1476 25.098Z" fill="#68421F"/>
<path opacity="0.97" d="M99.0316 25.0512C99.4161 25.6921 81.8878 26.6276 68.547 27.0346C43.9036 27.7877 15.1931 25.823 15.2626 25.0793C15.3043 24.6161 40.2951 24.2653 62.7197 24.284C79.1409 24.2934 98.712 24.5132 99.0316 25.0512Z" fill="#653F1B"/>
<path opacity="0.98" d="M98.921 24.9997C99.1063 25.4815 81.1426 26.1411 67.6813 26.375C42.8804 26.8896 15.365 25.6546 15.3928 25.0746C15.416 24.6395 40.7542 24.2606 62.924 24.2934C78.97 24.3121 98.7496 24.56 98.9164 24.995L98.921 24.9997Z" fill="#633B17"/>
<path d="M98.8095 24.9483C98.8095 25.2757 80.3964 25.6078 66.8194 25.7154C41.861 25.9119 15.5315 25.4815 15.5315 25.0746C15.5315 24.6723 41.2218 24.2653 63.1368 24.3074C78.8122 24.3355 98.8095 24.6068 98.8095 24.9483Z" fill="#603813"/>
</g>
</g>
<path d="M100.431 26.2019H14.7074L6.00342 22.3848H109.756L100.431 26.2019Z" fill="url(#paint10_linear_14_9018)"/>
<path d="M109.751 22.2585H6.00342V22.5111H109.751V22.2585Z" fill="#754D2F"/>
<defs>
<linearGradient id="paint0_linear_14_9018" x1="25.1762" y1="23.9378" x2="-38.9729" y2="-0.826824" gradientUnits="userSpaceOnUse">
<stop stop-color="#D4AF8A"/>
<stop offset="0.4" stop-color="#B7926E"/>
<stop offset="1" stop-color="#916B48"/>
</linearGradient>
<linearGradient id="paint1_linear_14_9018" x1="105.212" y1="10.8914" x2="94.352" y2="50.8381" gradientUnits="userSpaceOnUse">
<stop stop-color="#D5C1A6"/>
<stop offset="0.04" stop-color="#D3BEA2"/>
<stop offset="0.64" stop-color="#C19C76"/>
<stop offset="0.95" stop-color="#BA8F65"/>
<stop offset="0.97" stop-color="#B78B62"/>
<stop offset="0.98" stop-color="#AE8259"/>
<stop offset="1" stop-color="#9A6C45"/>
</linearGradient>
<linearGradient id="paint2_linear_14_9018" x1="98.6155" y1="39.8191" x2="-2.04918" y2="4.76338" gradientUnits="userSpaceOnUse">
<stop stop-color="#BA8F65"/>
<stop offset="0.39" stop-color="#9E744B"/>
<stop offset="1" stop-color="#774E28"/>
</linearGradient>
<linearGradient id="paint3_linear_14_9018" x1="57.5602" y1="25.9025" x2="57.5602" y2="24.1016" gradientUnits="userSpaceOnUse">
<stop stop-color="white"/>
<stop offset="0.02" stop-color="#F1F1F1"/>
<stop offset="0.09" stop-color="#BFBFBF"/>
<stop offset="0.17" stop-color="#919191"/>
<stop offset="0.25" stop-color="#6A6A6A"/>
<stop offset="0.34" stop-color="#494949"/>
<stop offset="0.43" stop-color="#2E2E2E"/>
<stop offset="0.54" stop-color="#191919"/>
<stop offset="0.65" stop-color="#0B0B0B"/>
<stop offset="0.78" stop-color="#020202"/>
<stop offset="1"/>
</linearGradient>
<linearGradient id="paint4_linear_14_9018" x1="56.9579" y1="40.5301" x2="57.9925" y2="11.6873" gradientUnits="userSpaceOnUse">
<stop stop-color="#D5C1A6"/>
<stop offset="0.54" stop-color="#B99A79"/>
<stop offset="1" stop-color="#A57C58"/>
</linearGradient>
<linearGradient id="paint5_linear_14_9018" x1="-1.85268" y1="27.2357" x2="182.93" y2="96.4203" gradientUnits="userSpaceOnUse">
<stop stop-color="#D5C1A6"/>
<stop offset="0.04" stop-color="#D3BEA2"/>
<stop offset="0.64" stop-color="#C19C76"/>
<stop offset="0.95" stop-color="#BA8F65"/>
<stop offset="0.97" stop-color="#B78B62"/>
<stop offset="0.98" stop-color="#AE8259"/>
<stop offset="1" stop-color="#9A6C45"/>
</linearGradient>
<linearGradient id="paint6_linear_14_9018" x1="15.0869" y1="49.9232" x2="16.8981" y2="49.9232" gradientUnits="userSpaceOnUse">
<stop stop-color="white"/>
<stop offset="0.02" stop-color="#F1F1F1"/>
<stop offset="0.09" stop-color="#BFBFBF"/>
<stop offset="0.17" stop-color="#919191"/>
<stop offset="0.25" stop-color="#6A6A6A"/>
<stop offset="0.34" stop-color="#494949"/>
<stop offset="0.43" stop-color="#2E2E2E"/>
<stop offset="0.54" stop-color="#191919"/>
<stop offset="0.65" stop-color="#0B0B0B"/>
<stop offset="0.78" stop-color="#020202"/>
<stop offset="1"/>
</linearGradient>
<linearGradient id="paint7_linear_14_9018" x1="97.9761" y1="49.9232" x2="99.7873" y2="49.9232" gradientUnits="userSpaceOnUse">
<stop stop-color="white"/>
<stop offset="0.13" stop-color="#FCFBFA"/>
<stop offset="0.28" stop-color="#F4F0EC"/>
<stop offset="0.43" stop-color="#E8DDD4"/>
<stop offset="0.6" stop-color="#D6C4B4"/>
<stop offset="0.77" stop-color="#BFA38A"/>
<stop offset="0.94" stop-color="#A47B58"/>
<stop offset="1" stop-color="#9A6C45"/>
</linearGradient>
<linearGradient id="paint8_linear_14_9018" x1="57.569" y1="61.992" x2="57.569" y2="70.5758" gradientUnits="userSpaceOnUse">
<stop stop-color="white"/>
<stop offset="0.16" stop-color="#F1EBE6"/>
<stop offset="0.51" stop-color="#CFB9A7"/>
<stop offset="1" stop-color="#9A6C45"/>
</linearGradient>
<linearGradient id="paint9_linear_14_9018" x1="57.5462" y1="4.30964" x2="57.5462" y2="37.3866" gradientUnits="userSpaceOnUse">
<stop stop-color="#D5C1A6"/>
<stop offset="0.04" stop-color="#D3BEA2"/>
<stop offset="0.64" stop-color="#C19C76"/>
<stop offset="0.95" stop-color="#BA8F65"/>
<stop offset="0.97" stop-color="#B78B62"/>
<stop offset="0.98" stop-color="#AE8259"/>
<stop offset="1" stop-color="#9A6C45"/>
</linearGradient>
<linearGradient id="paint10_linear_14_9018" x1="57.8796" y1="21.2668" x2="57.8796" y2="29.2238" gradientUnits="userSpaceOnUse">
<stop stop-color="#BA8F65"/>
<stop offset="0.27" stop-color="#9D734B"/>
<stop offset="0.76" stop-color="#714822"/>
<stop offset="1" stop-color="#603813"/>
</linearGradient>
</defs>
</svg>
